<?xml version="1.0" encoding="utf-8" standalone="no"?>
<!DOCTYPE svg PUBLIC "-//W3C//DTD SVG 1.1//EN"
  "http://www.w3.org/Graphics/SVG/1.1/DTD/svg11.dtd">
<svg xmlns:xlink="http://www.w3.org/1999/xlink" width="748.8pt" height="388.8pt" viewBox="0 0 748.8 388.8" xmlns="http://www.w3.org/2000/svg" version="1.1">
 <metadata>
  <rdf:RDF xmlns:dc="http://purl.org/dc/elements/1.1/" xmlns:cc="http://creativecommons.org/ns#" xmlns:rdf="http://www.w3.org/1999/02/22-rdf-syntax-ns#">
   <cc:Work>
    <dc:type rdf:resource="http://purl.org/dc/dcmitype/StillImage"/>
    <dc:date>2026-08-26T07:29:30.706925</dc:date>
    <dc:format>image/svg+xml</dc:format>
    <dc:creator>
     <cc:Agent>
      <dc:title>Matplotlib v3.11.0, https://matplotlib.org/</dc:title>
     </cc:Agent>
    </dc:creator>
   </cc:Work>
  </rdf:RDF>
 </metadata>
 <defs>
  <style type="text/css">*{stroke-linejoin: round; stroke-linecap: butt}</style>
 </defs>
 <g id="figure_1">
  <g id="patch_1">
   <path d="M 0 388.8 
L 748.8 388.8 
L 748.8 0 
L 0 0 
z
" style="fill: #ffffff"/>
  </g>
  <g id="axes_1">
   <g id="patch_2">
    <path d="M 178.10024 321.431596 
L 733.618494 321.431596 
L 733.618494 3.00024 
L 178.10024 3.00024 
z
" style="fill: #ffffff"/>
   </g>
   <g id="matplotlib.axis_1">
    <g id="xtick_1">
     <g id="line2d_1">
      <path d="M 190.176724 321.431596 
L 190.176724 3.00024 
" clip-path="url(#p6498d09406)" style="fill: none; stroke: #e8e6e1; stroke-linecap: square"/>
     </g>
     <g id="line2d_2"/>
     <g id="text_1">
      <!-- 0 -->
      <g style="fill: #5a6b78" transform="translate(183.236411 346.244096) scale(0.22 -0.22)">
       <defs>
        <path id="Inter-Regular-102" d="M 2019 -63 
Q 1500 -63 1134 218 
Q 769 500 575 1033 
Q 381 1566 381 2325 
Q 381 3081 576 3615 
Q 772 4150 1137 4434 
Q 1503 4719 2019 4719 
Q 2534 4719 2901 4434 
Q 3269 4150 3462 3615 
Q 3656 3081 3656 2325 
Q 3656 1569 3464 1034 
Q 3272 500 2906 218 
Q 2541 -63 2019 -63 
z
M 2019 456 
Q 2359 456 2596 678 
Q 2834 900 2959 1317 
Q 3084 1734 3084 2325 
Q 3084 2919 2959 3339 
Q 2834 3759 2596 3981 
Q 2359 4203 2019 4203 
Q 1678 4203 1440 3979 
Q 1203 3756 1078 3337 
Q 953 2919 953 2325 
Q 953 1734 1078 1317 
Q 1203 900 1440 678 
Q 1678 456 2019 456 
z
" transform="scale(0.015625)"/>
       </defs>
       <use xlink:href="#Inter-Regular-102"/>
      </g>
     </g>
    </g>
    <g id="xtick_2">
     <g id="line2d_3">
      <path d="M 310.941562 321.431596 
L 310.941562 3.00024 
" clip-path="url(#p6498d09406)" style="fill: none; stroke: #e8e6e1; stroke-linecap: square"/>
     </g>
     <g id="line2d_4"/>
     <g id="text_2">
      <!-- 20 -->
      <g style="fill: #5a6b78" transform="translate(297.292968 346.244096) scale(0.22 -0.22)">
       <defs>
        <path id="Inter-Regular-104" d="M 481 0 
L 481 428 
L 2028 2106 
Q 2288 2388 2459 2600 
Q 2631 2813 2718 3005 
Q 2806 3197 2806 3413 
Q 2806 3656 2690 3834 
Q 2575 4013 2378 4108 
Q 2181 4203 1931 4203 
Q 1666 4203 1470 4095 
Q 1275 3988 1169 3792 
Q 1063 3597 1063 3334 
L 494 3334 
Q 494 3747 684 4059 
Q 875 4372 1203 4545 
Q 1531 4719 1947 4719 
Q 2363 4719 2683 4545 
Q 3003 4372 3186 4078 
Q 3369 3784 3369 3419 
Q 3369 3166 3278 2927 
Q 3188 2688 2959 2384 
Q 2731 2081 2319 1644 
L 1300 559 
L 1300 522 
L 3447 522 
L 3447 0 
L 481 0 
z
" transform="scale(0.015625)"/>
       </defs>
       <use xlink:href="#Inter-Regular-104"/>
       <use xlink:href="#Inter-Regular-102" transform="translate(60.984375 0)"/>
      </g>
     </g>
    </g>
    <g id="xtick_3">
     <g id="line2d_5">
      <path d="M 431.7064 321.431596 
L 431.7064 3.00024 
" clip-path="url(#p6498d09406)" style="fill: none; stroke: #e8e6e1; stroke-linecap: square"/>
     </g>
     <g id="line2d_6"/>
     <g id="text_3">
      <!-- 40 -->
      <g style="fill: #5a6b78" transform="translate(417.660775 346.244096) scale(0.22 -0.22)">
       <defs>
        <path id="Inter-Regular-106" d="M 375 947 
L 375 1431 
L 2413 4656 
L 2772 4656 
L 2772 3913 
L 2531 3913 
L 1009 1506 
L 1009 1469 
L 3766 1469 
L 3766 947 
L 375 947 
z
M 2566 0 
L 2566 1091 
L 2569 1319 
L 2569 4656 
L 3134 4656 
L 3134 0 
L 2566 0 
z
" transform="scale(0.015625)"/>
       </defs>
       <use xlink:href="#Inter-Regular-106"/>
       <use xlink:href="#Inter-Regular-102" transform="translate(64.59375 0)"/>
      </g>
     </g>
    </g>
    <g id="xtick_4">
     <g id="line2d_7">
      <path d="M 552.471237 321.431596 
L 552.471237 3.00024 
" clip-path="url(#p6498d09406)" style="fill: none; stroke: #e8e6e1; stroke-linecap: square"/>
     </g>
     <g id="line2d_8"/>
     <g id="text_4">
      <!-- 60 -->
      <g style="fill: #5a6b78" transform="translate(538.709206 346.244096) scale(0.22 -0.22)">
       <defs>
        <path id="Inter-Regular-108" d="M 2019 -63 
Q 1728 -63 1437 43 
Q 1147 150 908 400 
Q 669 650 525 1078 
Q 381 1506 381 2150 
Q 381 2766 498 3242 
Q 616 3719 839 4048 
Q 1063 4378 1378 4548 
Q 1694 4719 2091 4719 
Q 2481 4719 2790 4562 
Q 3100 4406 3297 4128 
Q 3494 3850 3550 3484 
L 2969 3484 
Q 2891 3788 2672 3991 
Q 2453 4194 2091 4194 
Q 1734 4194 1476 3984 
Q 1219 3775 1081 3379 
Q 944 2984 944 2425 
L 981 2425 
Q 1106 2619 1281 2758 
Q 1456 2897 1672 2970 
Q 1888 3044 2128 3044 
Q 2528 3044 2859 2847 
Q 3191 2650 3389 2301 
Q 3588 1953 3588 1503 
Q 3588 1069 3394 714 
Q 3200 359 2847 148 
Q 2494 -63 2019 -63 
z
M 2019 459 
Q 2300 459 2525 600 
Q 2750 741 2881 977 
Q 3013 1213 3013 1503 
Q 3013 1788 2886 2020 
Q 2759 2253 2537 2390 
Q 2316 2528 2034 2528 
Q 1822 2528 1639 2445 
Q 1456 2363 1318 2217 
Q 1181 2072 1104 1886 
Q 1028 1700 1028 1497 
Q 1028 1222 1156 986 
Q 1284 750 1509 604 
Q 1734 459 2019 459 
z
" transform="scale(0.015625)"/>
       </defs>
       <use xlink:href="#Inter-Regular-108"/>
       <use xlink:href="#Inter-Regular-102" transform="translate(62.015625 0)"/>
      </g>
     </g>
    </g>
    <g id="xtick_5">
     <g id="line2d_9">
      <path d="M 673.236075 321.431596 
L 673.236075 3.00024 
" clip-path="url(#p6498d09406)" style="fill: none; stroke: #e8e6e1; stroke-linecap: square"/>
     </g>
     <g id="line2d_10"/>
     <g id="text_5">
      <!-- 80 -->
      <g style="fill: #5a6b78" transform="translate(659.491232 346.244096) scale(0.22 -0.22)">
       <defs>
        <path id="Inter-Regular-10a" d="M 1978 -63 
Q 1506 -63 1145 104 
Q 784 272 582 565 
Q 381 859 381 1238 
Q 381 1531 500 1782 
Q 619 2034 825 2203 
Q 1031 2372 1291 2419 
L 1291 2444 
Q 950 2531 750 2822 
Q 550 3113 550 3481 
Q 550 3838 734 4117 
Q 919 4397 1241 4558 
Q 1563 4719 1978 4719 
Q 2388 4719 2709 4558 
Q 3031 4397 3217 4117 
Q 3403 3838 3403 3481 
Q 3403 3113 3201 2822 
Q 3000 2531 2669 2444 
L 2669 2419 
Q 2922 2372 3128 2203 
Q 3334 2034 3456 1782 
Q 3578 1531 3578 1238 
Q 3578 859 3373 565 
Q 3169 272 2808 104 
Q 2447 -63 1978 -63 
z
M 1978 453 
Q 2288 453 2513 554 
Q 2738 656 2861 839 
Q 2984 1022 2984 1269 
Q 2984 1528 2853 1726 
Q 2722 1925 2494 2039 
Q 2266 2153 1978 2153 
Q 1684 2153 1456 2039 
Q 1228 1925 1097 1726 
Q 966 1528 966 1269 
Q 966 1022 1087 839 
Q 1209 656 1437 554 
Q 1666 453 1978 453 
z
M 1978 2650 
Q 2225 2650 2415 2748 
Q 2606 2847 2717 3025 
Q 2828 3203 2828 3438 
Q 2828 3672 2722 3844 
Q 2616 4016 2423 4111 
Q 2231 4206 1978 4206 
Q 1722 4206 1530 4111 
Q 1338 4016 1231 3844 
Q 1125 3672 1125 3438 
Q 1125 3203 1233 3025 
Q 1341 2847 1534 2748 
Q 1728 2650 1978 2650 
z
" transform="scale(0.015625)"/>
       </defs>
       <use xlink:href="#Inter-Regular-10a"/>
       <use xlink:href="#Inter-Regular-102" transform="translate(61.859375 0)"/>
      </g>
     </g>
    </g>
    <g id="text_6">
     <!-- basal-parameter error (%) -->
     <g style="fill: #152a3a" transform="translate(300.640617 379.769487) scale(0.25 -0.25)">
      <defs>
       <path id="Inter-Regular-8f" d="M 2116 -75 
Q 1784 -75 1581 39 
Q 1378 153 1268 298 
Q 1159 444 1100 541 
L 1038 541 
L 1038 0 
L 494 0 
L 494 4656 
L 1056 4656 
L 1056 2934 
L 1100 2934 
Q 1159 3028 1265 3170 
Q 1372 3313 1572 3425 
Q 1772 3538 2113 3538 
Q 2550 3538 2883 3319 
Q 3216 3100 3405 2695 
Q 3594 2291 3594 1738 
Q 3594 1181 3406 775 
Q 3219 369 2886 147 
Q 2553 -75 2116 -75 
z
M 2031 428 
Q 2359 428 2579 604 
Q 2800 781 2911 1079 
Q 3022 1378 3022 1744 
Q 3022 2106 2912 2398 
Q 2803 2691 2583 2862 
Q 2363 3034 2031 3034 
Q 1709 3034 1490 2871 
Q 1272 2709 1161 2420 
Q 1050 2131 1050 1744 
Q 1050 1356 1162 1059 
Q 1275 763 1495 595 
Q 1716 428 2031 428 
z
" transform="scale(0.015625)"/>
       <path id="Inter-Regular-82" d="M 1472 -81 
Q 1141 -81 870 44 
Q 600 169 440 409 
Q 281 650 281 994 
Q 281 1294 400 1481 
Q 519 1669 717 1776 
Q 916 1884 1156 1937 
Q 1397 1991 1641 2022 
Q 1953 2063 2150 2084 
Q 2347 2106 2442 2159 
Q 2538 2213 2538 2341 
L 2538 2359 
Q 2538 2578 2456 2729 
Q 2375 2881 2212 2962 
Q 2050 3044 1806 3044 
Q 1556 3044 1378 2966 
Q 1200 2888 1089 2770 
Q 978 2653 922 2531 
L 381 2709 
Q 516 3028 744 3208 
Q 972 3388 1247 3463 
Q 1522 3538 1791 3538 
Q 1966 3538 2189 3495 
Q 2413 3453 2620 3328 
Q 2828 3203 2964 2958 
Q 3100 2713 3100 2303 
L 3100 0 
L 2547 0 
L 2547 475 
L 2509 475 
Q 2450 353 2319 223 
Q 2188 94 1978 6 
Q 1769 -81 1472 -81 
z
M 1569 416 
Q 1881 416 2097 537 
Q 2313 659 2425 854 
Q 2538 1050 2538 1263 
L 2538 1747 
Q 2503 1706 2387 1673 
Q 2272 1641 2123 1616 
Q 1975 1591 1836 1573 
Q 1697 1556 1616 1547 
Q 1413 1522 1236 1461 
Q 1059 1400 953 1283 
Q 847 1166 847 966 
Q 847 784 940 662 
Q 1034 541 1196 478 
Q 1359 416 1569 416 
z
" transform="scale(0.015625)"/>
       <path id="Inter-Regular-d5" d="M 1681 -75 
Q 1322 -75 1042 29 
Q 763 134 581 340 
Q 400 547 338 847 
L 872 975 
Q 947 688 1155 553 
Q 1363 419 1675 419 
Q 2041 419 2258 575 
Q 2475 731 2475 947 
Q 2475 1128 2348 1248 
Q 2222 1369 1963 1428 
L 1381 1566 
Q 906 1678 675 1914 
Q 444 2150 444 2519 
Q 444 2819 612 3048 
Q 781 3278 1073 3408 
Q 1366 3538 1738 3538 
Q 2097 3538 2348 3430 
Q 2600 3322 2758 3133 
Q 2916 2944 2994 2697 
L 2484 2566 
Q 2413 2753 2245 2906 
Q 2078 3059 1741 3059 
Q 1428 3059 1220 2915 
Q 1013 2772 1013 2553 
Q 1013 2359 1153 2242 
Q 1294 2125 1600 2053 
L 2128 1928 
Q 2603 1816 2831 1580 
Q 3059 1344 3059 984 
Q 3059 678 2886 439 
Q 2713 200 2402 62 
Q 2091 -75 1681 -75 
z
" transform="scale(0.015625)"/>
       <path id="Inter-Regular-b7" d="M 1056 4656 
L 1056 0 
L 494 0 
L 494 4656 
L 1056 4656 
z
" transform="scale(0.015625)"/>
       <path id="Inter-Regular-158" d="M 2494 2247 
L 2494 1728 
L 450 1728 
L 450 2247 
L 2494 2247 
z
" transform="scale(0.015625)"/>
       <path id="Inter-Regular-cf" d="M 494 -1306 
L 494 3494 
L 1038 3494 
L 1038 2934 
L 1100 2934 
Q 1159 3028 1265 3170 
Q 1372 3313 1572 3425 
Q 1772 3538 2113 3538 
Q 2550 3538 2883 3319 
Q 3216 3100 3405 2695 
Q 3594 2291 3594 1738 
Q 3594 1181 3406 775 
Q 3219 369 2886 147 
Q 2553 -75 2116 -75 
Q 1784 -75 1581 39 
Q 1378 153 1268 298 
Q 1159 444 1100 541 
L 1056 541 
L 1056 -1306 
L 494 -1306 
z
M 2031 428 
Q 2359 428 2579 604 
Q 2800 781 2911 1079 
Q 3022 1378 3022 1744 
Q 3022 2106 2912 2398 
Q 2803 2691 2583 2862 
Q 2363 3034 2031 3034 
Q 1709 3034 1490 2871 
Q 1272 2709 1161 2420 
Q 1050 2131 1050 1744 
Q 1050 1356 1162 1059 
Q 1275 763 1495 595 
Q 1716 428 2031 428 
z
" transform="scale(0.015625)"/>
       <path id="Inter-Regular-d2" d="M 494 0 
L 494 3494 
L 1038 3494 
L 1038 2956 
L 1075 2956 
Q 1172 3222 1420 3383 
Q 1669 3544 1981 3544 
Q 2044 3544 2130 3541 
Q 2216 3538 2266 3534 
L 2266 2969 
Q 2241 2975 2141 2987 
Q 2041 3000 1928 3000 
Q 1678 3000 1479 2895 
Q 1281 2791 1168 2608 
Q 1056 2425 1056 2188 
L 1056 0 
L 494 0 
z
" transform="scale(0.015625)"/>
       <path id="Inter-Regular-bb" d="M 494 0 
L 494 3494 
L 1041 3494 
L 1044 2713 
L 1000 2713 
Q 1072 2997 1226 3183 
Q 1381 3369 1589 3462 
Q 1797 3556 2022 3556 
Q 2403 3556 2639 3322 
Q 2875 3088 2944 2706 
L 2869 2706 
Q 2931 2969 3097 3159 
Q 3263 3350 3498 3453 
Q 3734 3556 4013 3556 
Q 4316 3556 4566 3425 
Q 4816 3294 4964 3028 
Q 5113 2763 5113 2356 
L 5113 0 
L 4550 0 
L 4550 2341 
Q 4550 2719 4337 2881 
Q 4125 3044 3844 3044 
Q 3609 3044 3439 2945 
Q 3269 2847 3176 2675 
Q 3084 2503 3084 2281 
L 3084 0 
L 2522 0 
L 2522 2397 
Q 2522 2688 2328 2866 
Q 2134 3044 1838 3044 
Q 1634 3044 1454 2948 
Q 1275 2853 1165 2665 
Q 1056 2478 1056 2200 
L 1056 0 
L 494 0 
z
" transform="scale(0.015625)"/>
       <path id="Inter-Regular-97" d="M 1963 -75 
Q 1456 -75 1089 150 
Q 722 375 523 778 
Q 325 1181 325 1719 
Q 325 2256 519 2665 
Q 713 3075 1067 3306 
Q 1422 3538 1897 3538 
Q 2175 3538 2445 3445 
Q 2716 3353 2936 3148 
Q 3156 2944 3287 2609 
Q 3419 2275 3419 1791 
L 3419 1556 
L 706 1556 
L 706 2031 
L 3116 2031 
L 2853 1856 
Q 2853 2200 2745 2467 
Q 2638 2734 2425 2886 
Q 2213 3038 1897 3038 
Q 1581 3038 1356 2883 
Q 1131 2728 1012 2479 
Q 894 2231 894 1947 
L 894 1631 
Q 894 1244 1028 973 
Q 1163 703 1405 564 
Q 1647 425 1966 425 
Q 2172 425 2340 484 
Q 2509 544 2631 664 
Q 2753 784 2819 963 
L 3363 813 
Q 3281 550 3087 350 
Q 2894 150 2608 37 
Q 2322 -75 1963 -75 
z
" transform="scale(0.015625)"/>
       <path id="Inter-Regular-d9" d="M 1869 3494 
L 1869 3013 
L 63 3013 
L 63 3494 
L 1869 3494 
z
M 588 4325 
L 1150 4325 
L 1150 906 
Q 1150 672 1245 564 
Q 1341 456 1563 456 
Q 1616 456 1698 468 
Q 1781 481 1850 494 
L 1966 19 
Q 1878 -13 1767 -28 
Q 1656 -44 1547 -44 
Q 1094 -44 841 195 
Q 588 434 588 863 
L 588 4325 
z
" transform="scale(0.015625)"/>
       <path id="Inter-Regular-1cd" transform="scale(0.015625)"/>
       <path id="Inter-Regular-c3" d="M 1916 -75 
Q 1441 -75 1083 150 
Q 725 375 525 781 
Q 325 1188 325 1725 
Q 325 2272 525 2680 
Q 725 3088 1083 3313 
Q 1441 3538 1916 3538 
Q 2394 3538 2753 3313 
Q 3113 3088 3313 2680 
Q 3513 2272 3513 1725 
Q 3513 1188 3313 781 
Q 3113 375 2753 150 
Q 2394 -75 1916 -75 
z
M 1916 428 
Q 2269 428 2497 609 
Q 2725 791 2834 1086 
Q 2944 1381 2944 1725 
Q 2944 2072 2834 2370 
Q 2725 2669 2497 2851 
Q 2269 3034 1916 3034 
Q 1566 3034 1341 2851 
Q 1116 2669 1006 2372 
Q 897 2075 897 1725 
Q 897 1381 1006 1086 
Q 1116 791 1341 609 
Q 1566 428 1916 428 
z
" transform="scale(0.015625)"/>
       <path id="Inter-Regular-14b" d="M 681 2191 
Q 681 2700 786 3258 
Q 891 3816 1072 4333 
Q 1253 4850 1488 5235 
L 2034 5235 
Q 1794 4744 1617 4213 
Q 1441 3682 1347 3164 
Q 1253 2647 1253 2191 
Q 1253 1775 1336 1350 
Q 1419 925 1592 451 
Q 1766 -22 2034 -578 
L 1488 -578 
Q 1091 100 886 803 
Q 681 1507 681 2191 
z
" transform="scale(0.015625)"/>
       <path id="Inter-Regular-1bf" d="M 1634 2597 
Q 1338 2597 1133 2726 
Q 928 2856 823 3072 
Q 719 3288 719 3544 
L 719 3788 
Q 719 4044 825 4258 
Q 931 4472 1136 4601 
Q 1341 4731 1634 4731 
Q 1934 4731 2136 4601 
Q 2338 4472 2441 4258 
Q 2544 4044 2544 3788 
L 2544 3544 
Q 2544 3288 2439 3072 
Q 2334 2856 2132 2726 
Q 1931 2597 1634 2597 
z
M 1634 3006 
Q 1872 3006 1969 3170 
Q 2066 3334 2066 3544 
L 2066 3788 
Q 2066 3994 1972 4159 
Q 1878 4325 1634 4325 
Q 1400 4325 1298 4159 
Q 1197 3994 1197 3788 
L 1197 3544 
Q 1197 3334 1295 3170 
Q 1394 3006 1634 3006 
z
M 4656 -91 
Q 4359 -91 4154 39 
Q 3950 169 3845 384 
Q 3741 600 3741 856 
L 3741 1100 
Q 3741 1356 3847 1570 
Q 3953 1784 4158 1914 
Q 4363 2044 4656 2044 
Q 4956 2044 5159 1914 
Q 5363 1784 5464 1570 
Q 5566 1356 5566 1100 
L 5566 856 
Q 5566 600 5461 384 
Q 5356 169 5154 39 
Q 4953 -91 4656 -91 
z
M 4656 319 
Q 4894 319 4991 483 
Q 5088 647 5088 856 
L 5088 1100 
Q 5088 1306 4994 1472 
Q 4900 1638 4656 1638 
Q 4422 1638 4320 1472 
Q 4219 1306 4219 1100 
L 4219 856 
Q 4219 647 4317 483 
Q 4416 319 4656 319 
z
M 1263 0 
L 4463 4656 
L 4991 4656 
L 1791 0 
L 1263 0 
z
" transform="scale(0.015625)"/>
       <path id="Inter-Regular-14c" d="M 300 -578 
Q 578 -6 750 470 
Q 922 947 1001 1369 
Q 1081 1791 1081 2191 
Q 1081 2647 987 3164 
Q 894 3682 719 4213 
Q 544 4744 300 5235 
L 847 5235 
Q 1081 4850 1264 4333 
Q 1447 3816 1550 3256 
Q 1653 2697 1653 2191 
Q 1653 1494 1445 791 
Q 1238 88 847 -578 
L 300 -578 
z
" transform="scale(0.015625)"/>
      </defs>
      <use xlink:href="#Inter-Regular-8f"/>
      <use xlink:href="#Inter-Regular-82" transform="translate(62.21875 0)"/>
      <use xlink:href="#Inter-Regular-d5" transform="translate(118.375 0)"/>
      <use xlink:href="#Inter-Regular-82" transform="translate(171.15625 0)"/>
      <use xlink:href="#Inter-Regular-b7" transform="translate(227.3125 0)"/>
      <use xlink:href="#Inter-Regular-158" transform="translate(251.53125 0)"/>
      <use xlink:href="#Inter-Regular-cf" transform="translate(297.53125 0)"/>
      <use xlink:href="#Inter-Regular-82" transform="translate(359.75 0)"/>
      <use xlink:href="#Inter-Regular-d2" transform="translate(415.90625 0)"/>
      <use xlink:href="#Inter-Regular-82" transform="translate(453.546875 0)"/>
      <use xlink:href="#Inter-Regular-bb" transform="translate(509.703125 0)"/>
      <use xlink:href="#Inter-Regular-97" transform="translate(597.296875 0)"/>
      <use xlink:href="#Inter-Regular-d9" transform="translate(655.59375 0)"/>
      <use xlink:href="#Inter-Regular-97" transform="translate(687.34375 0)"/>
      <use xlink:href="#Inter-Regular-d2" transform="translate(745.640625 0)"/>
      <use xlink:href="#Inter-Regular-1cd" transform="translate(783.28125 0)"/>
      <use xlink:href="#Inter-Regular-97" transform="translate(811.40625 0)"/>
      <use xlink:href="#Inter-Regular-d2" transform="translate(869.703125 0)"/>
      <use xlink:href="#Inter-Regular-d2" transform="translate(908.90625 0)"/>
      <use xlink:href="#Inter-Regular-c3" transform="translate(944.890625 0)"/>
      <use xlink:href="#Inter-Regular-d2" transform="translate(1004.859375 0)"/>
      <use xlink:href="#Inter-Regular-1cd" transform="translate(1042.5 0)"/>
      <use xlink:href="#Inter-Regular-14b" transform="translate(1070.625 0)"/>
      <use xlink:href="#Inter-Regular-1bf" transform="translate(1107.09375 0)"/>
      <use xlink:href="#Inter-Regular-14c" transform="translate(1205.28125 0)"/>
     </g>
    </g>
   </g>
   <g id="matplotlib.axis_2">
    <g id="ytick_1">
     <g id="line2d_11">
      <path d="M 178.10024 294.575939 
L 733.618494 294.575939 
" clip-path="url(#p6498d09406)" style="fill: none; stroke: #e8e6e1; stroke-linecap: square"/>
     </g>
     <g id="line2d_12"/>
     <g id="text_7">
      <!-- bc_cyp Severe -->
      <g style="fill: #5a6b78" transform="translate(3.00024 305.850939) scale(0.22 -0.22)">
       <defs>
        <path id="IBMPlexMono-Regular-3" d="M 608 4736 
L 1120 4736 
L 1120 2765 
L 1146 2765 
Q 1466 3379 2163 3379 
Q 2771 3379 3113 2924 
Q 3456 2470 3456 1651 
Q 3456 832 3113 377 
Q 2771 -77 2163 -77 
Q 1466 -77 1146 538 
L 1120 538 
L 1120 0 
L 608 0 
L 608 4736 
z
M 1965 378 
Q 2413 378 2659 650 
Q 2906 922 2906 1370 
L 2906 1933 
Q 2906 2381 2659 2653 
Q 2413 2925 1965 2925 
Q 1792 2925 1638 2880 
Q 1485 2835 1369 2748 
Q 1254 2662 1187 2537 
Q 1120 2413 1120 2246 
L 1120 1056 
Q 1120 890 1187 765 
Q 1254 640 1369 553 
Q 1485 467 1638 422 
Q 1792 378 1965 378 
z
" transform="scale(0.015625)"/>
        <path id="IBMPlexMono-Regular-4" d="M 2035 -77 
Q 1677 -77 1398 48 
Q 1120 173 928 397 
Q 736 621 637 941 
Q 538 1261 538 1651 
Q 538 2042 640 2362 
Q 742 2682 934 2909 
Q 1126 3136 1401 3257 
Q 1677 3379 2029 3379 
Q 2509 3379 2809 3168 
Q 3110 2957 3251 2618 
L 2842 2400 
Q 2752 2656 2544 2797 
Q 2336 2938 2029 2938 
Q 1805 2938 1629 2864 
Q 1453 2790 1331 2656 
Q 1210 2522 1149 2336 
Q 1088 2150 1088 1933 
L 1088 1370 
Q 1088 1152 1149 966 
Q 1210 781 1331 646 
Q 1453 512 1632 438 
Q 1811 365 2042 365 
Q 2374 365 2592 518 
Q 2810 672 2938 941 
L 3302 691 
Q 3155 358 2844 140 
Q 2534 -77 2035 -77 
z
" transform="scale(0.015625)"/>
        <path id="IBMPlexMono-Regular-46" d="M 384 -1082 
L 384 -608 
L 3456 -608 
L 3456 -1082 
L 384 -1082 
z
" transform="scale(0.015625)"/>
        <path id="IBMPlexMono-Regular-1a" d="M 2989 3302 
L 3501 3302 
L 1862 -723 
Q 1805 -864 1734 -969 
Q 1664 -1075 1568 -1142 
Q 1472 -1210 1337 -1245 
Q 1203 -1280 1018 -1280 
L 531 -1280 
L 531 -845 
L 1299 -845 
L 1670 64 
L 339 3302 
L 864 3302 
L 1421 1920 
L 1914 666 
L 1939 666 
L 2432 1920 
L 2989 3302 
z
" transform="scale(0.015625)"/>
        <path id="IBMPlexMono-Regular-11" d="M 608 3302 
L 1120 3302 
L 1120 2765 
L 1146 2765 
Q 1466 3379 2163 3379 
Q 2771 3379 3113 2924 
Q 3456 2470 3456 1651 
Q 3456 832 3113 377 
Q 2771 -77 2163 -77 
Q 1466 -77 1146 538 
L 1120 538 
L 1120 -1280 
L 608 -1280 
L 608 3302 
z
M 1965 378 
Q 2413 378 2659 650 
Q 2906 922 2906 1370 
L 2906 1933 
Q 2906 2381 2659 2653 
Q 2413 2925 1965 2925 
Q 1792 2925 1638 2880 
Q 1485 2835 1369 2748 
Q 1254 2662 1187 2537 
Q 1120 2413 1120 2246 
L 1120 1056 
Q 1120 890 1187 765 
Q 1254 640 1369 553 
Q 1485 467 1638 422 
Q 1792 378 1965 378 
z
" transform="scale(0.015625)"/>
        <path id="IBMPlexMono-Regular-114" transform="scale(0.015625)"/>
        <path id="IBMPlexMono-Regular-2e" d="M 1907 -77 
Q 1306 -77 922 144 
Q 538 365 288 710 
L 678 1030 
Q 941 704 1232 544 
Q 1523 384 1926 384 
Q 2413 384 2669 608 
Q 2925 832 2925 1235 
Q 2925 1562 2739 1744 
Q 2554 1926 2093 2003 
L 1594 2086 
Q 1267 2144 1046 2259 
Q 826 2374 691 2537 
Q 557 2701 499 2896 
Q 442 3091 442 3302 
Q 442 3917 845 4230 
Q 1248 4544 1933 4544 
Q 2470 4544 2838 4365 
Q 3206 4186 3430 3859 
L 3053 3533 
Q 2867 3776 2604 3929 
Q 2342 4083 1926 4083 
Q 1472 4083 1229 3891 
Q 986 3699 986 3315 
Q 986 3014 1168 2825 
Q 1350 2637 1824 2554 
L 2304 2470 
Q 2630 2413 2854 2297 
Q 3078 2182 3216 2022 
Q 3354 1862 3411 1664 
Q 3469 1466 3469 1248 
Q 3469 627 3062 275 
Q 2656 -77 1907 -77 
z
" transform="scale(0.015625)"/>
        <path id="IBMPlexMono-Regular-6" d="M 1978 -77 
Q 1619 -77 1334 44 
Q 1050 166 848 393 
Q 646 621 537 937 
Q 429 1254 429 1645 
Q 429 2042 541 2362 
Q 653 2682 851 2909 
Q 1050 3136 1328 3257 
Q 1606 3379 1946 3379 
Q 2278 3379 2550 3257 
Q 2822 3136 3014 2921 
Q 3206 2707 3308 2412 
Q 3411 2118 3411 1766 
L 3411 1523 
L 966 1523 
L 966 1370 
Q 966 1152 1036 966 
Q 1107 781 1238 646 
Q 1370 512 1558 438 
Q 1747 365 1978 365 
Q 2310 365 2553 518 
Q 2797 672 2925 941 
L 3302 685 
Q 3155 352 2812 137 
Q 2470 -77 1978 -77 
z
M 1946 2957 
Q 1734 2957 1555 2880 
Q 1376 2803 1245 2668 
Q 1114 2534 1040 2352 
Q 966 2170 966 1952 
L 966 1907 
L 2861 1907 
L 2861 1978 
Q 2861 2195 2793 2374 
Q 2726 2554 2608 2685 
Q 2490 2816 2320 2886 
Q 2150 2957 1946 2957 
z
" transform="scale(0.015625)"/>
        <path id="IBMPlexMono-Regular-17" d="M 1594 0 
L 410 3302 
L 928 3302 
L 1402 1920 
L 1914 429 
L 1939 429 
L 2451 1920 
L 2925 3302 
L 3430 3302 
L 2246 0 
L 1594 0 
z
" transform="scale(0.015625)"/>
        <path id="IBMPlexMono-Regular-13" d="M 493 435 
L 1459 435 
L 1459 2867 
L 493 2867 
L 493 3302 
L 1971 3302 
L 1971 2470 
L 2003 2470 
Q 2106 2861 2390 3081 
Q 2675 3302 3117 3302 
L 3578 3302 
L 3578 2790 
L 2957 2790 
Q 2515 2790 2243 2534 
Q 1971 2278 1971 1862 
L 1971 435 
L 3251 435 
L 3251 0 
L 493 0 
L 493 435 
z
" transform="scale(0.015625)"/>
       </defs>
       <use xlink:href="#IBMPlexMono-Regular-3"/>
       <use xlink:href="#IBMPlexMono-Regular-4" transform="translate(60 0)"/>
       <use xlink:href="#IBMPlexMono-Regular-46" transform="translate(120 0)"/>
       <use xlink:href="#IBMPlexMono-Regular-4" transform="translate(180 0)"/>
       <use xlink:href="#IBMPlexMono-Regular-1a" transform="translate(240 0)"/>
       <use xlink:href="#IBMPlexMono-Regular-11" transform="translate(300 0)"/>
       <use xlink:href="#IBMPlexMono-Regular-114" transform="translate(360 0)"/>
       <use xlink:href="#IBMPlexMono-Regular-2e" transform="translate(420 0)"/>
       <use xlink:href="#IBMPlexMono-Regular-6" transform="translate(480 0)"/>
       <use xlink:href="#IBMPlexMono-Regular-17" transform="translate(540 0)"/>
       <use xlink:href="#IBMPlexMono-Regular-6" transform="translate(600 0)"/>
       <use xlink:href="#IBMPlexMono-Regular-13" transform="translate(660 0)"/>
       <use xlink:href="#IBMPlexMono-Regular-6" transform="translate(720 0)"/>
      </g>
     </g>
    </g>
    <g id="ytick_2">
     <g id="line2d_13">
      <path d="M 178.10024 256.210716 
L 733.618494 256.210716 
" clip-path="url(#p6498d09406)" style="fill: none; stroke: #e8e6e1; stroke-linecap: square"/>
     </g>
     <g id="line2d_14"/>
     <g id="text_8">
      <!-- bc_cyp Normal -->
      <g style="fill: #5a6b78" transform="translate(3.00024 267.485716) scale(0.22 -0.22)">
       <defs>
        <path id="IBMPlexMono-Regular-29" d="M 1043 3763 
L 998 3763 
L 998 0 
L 512 0 
L 512 4467 
L 1274 4467 
L 2797 704 
L 2842 704 
L 2842 4467 
L 3328 4467 
L 3328 0 
L 2566 0 
L 1043 3763 
z
" transform="scale(0.015625)"/>
        <path id="IBMPlexMono-Regular-10" d="M 1920 -77 
Q 1574 -77 1296 44 
Q 1018 166 822 393 
Q 627 621 524 937 
Q 422 1254 422 1651 
Q 422 2042 524 2362 
Q 627 2682 822 2909 
Q 1018 3136 1296 3257 
Q 1574 3379 1920 3379 
Q 2266 3379 2544 3257 
Q 2822 3136 3017 2909 
Q 3213 2682 3315 2362 
Q 3418 2042 3418 1651 
Q 3418 1254 3315 937 
Q 3213 621 3017 393 
Q 2822 166 2544 44 
Q 2266 -77 1920 -77 
z
M 1920 365 
Q 2349 365 2611 621 
Q 2874 877 2874 1414 
L 2874 1888 
Q 2874 2426 2611 2682 
Q 2349 2938 1920 2938 
Q 1491 2938 1228 2682 
Q 966 2426 966 1888 
L 966 1414 
Q 966 877 1228 621 
Q 1491 365 1920 365 
z
" transform="scale(0.015625)"/>
        <path id="IBMPlexMono-Regular-e" d="M 346 0 
L 346 3302 
L 819 3302 
L 819 2918 
L 845 2918 
Q 922 3110 1062 3244 
Q 1203 3379 1478 3379 
Q 1766 3379 1907 3235 
Q 2048 3091 2080 2861 
L 2099 2861 
Q 2189 3085 2355 3232 
Q 2522 3379 2816 3379 
Q 3219 3379 3356 3097 
Q 3494 2816 3494 2291 
L 3494 0 
L 3021 0 
L 3021 2208 
Q 3021 2630 2934 2793 
Q 2848 2957 2618 2957 
Q 2413 2957 2285 2825 
Q 2157 2694 2157 2426 
L 2157 0 
L 1683 0 
L 1683 2208 
Q 1683 2630 1596 2793 
Q 1510 2957 1286 2957 
Q 1082 2957 950 2825 
Q 819 2694 819 2426 
L 819 0 
L 346 0 
z
" transform="scale(0.015625)"/>
        <path id="IBMPlexMono-Regular-1" d="M 3168 0 
Q 2867 0 2739 153 
Q 2611 307 2579 538 
L 2547 538 
Q 2438 250 2198 86 
Q 1958 -77 1555 -77 
Q 1037 -77 729 192 
Q 422 461 422 928 
Q 422 1389 758 1638 
Q 1094 1888 1843 1888 
L 2547 1888 
L 2547 2214 
Q 2547 2579 2342 2761 
Q 2138 2944 1760 2944 
Q 1427 2944 1216 2813 
Q 1005 2682 877 2458 
L 531 2714 
Q 595 2842 704 2963 
Q 813 3085 973 3177 
Q 1133 3270 1337 3324 
Q 1542 3379 1792 3379 
Q 2374 3379 2716 3084 
Q 3059 2790 3059 2266 
L 3059 448 
L 3520 448 
L 3520 0 
L 3168 0 
z
M 1645 352 
Q 1843 352 2006 400 
Q 2170 448 2291 528 
Q 2413 608 2480 720 
Q 2547 832 2547 960 
L 2547 1504 
L 1843 1504 
Q 1382 1504 1171 1376 
Q 960 1248 960 1005 
L 960 870 
Q 960 614 1142 483 
Q 1325 352 1645 352 
z
" transform="scale(0.015625)"/>
        <path id="IBMPlexMono-Regular-d" d="M 512 435 
L 1664 435 
L 1664 4301 
L 512 4301 
L 512 4736 
L 2176 4736 
L 2176 435 
L 3328 435 
L 3328 0 
L 512 0 
L 512 435 
z
" transform="scale(0.015625)"/>
       </defs>
       <use xlink:href="#IBMPlexMono-Regular-3"/>
       <use xlink:href="#IBMPlexMono-Regular-4" transform="translate(60 0)"/>
       <use xlink:href="#IBMPlexMono-Regular-46" transform="translate(120 0)"/>
       <use xlink:href="#IBMPlexMono-Regular-4" transform="translate(180 0)"/>
       <use xlink:href="#IBMPlexMono-Regular-1a" transform="translate(240 0)"/>
       <use xlink:href="#IBMPlexMono-Regular-11" transform="translate(300 0)"/>
       <use xlink:href="#IBMPlexMono-Regular-114" transform="translate(360 0)"/>
       <use xlink:href="#IBMPlexMono-Regular-29" transform="translate(420 0)"/>
       <use xlink:href="#IBMPlexMono-Regular-10" transform="translate(480 0)"/>
       <use xlink:href="#IBMPlexMono-Regular-13" transform="translate(540 0)"/>
       <use xlink:href="#IBMPlexMono-Regular-e" transform="translate(600 0)"/>
       <use xlink:href="#IBMPlexMono-Regular-1" transform="translate(660 0)"/>
       <use xlink:href="#IBMPlexMono-Regular-d" transform="translate(720 0)"/>
      </g>
     </g>
    </g>
    <g id="ytick_3">
     <g id="line2d_15">
      <path d="M 178.10024 217.845492 
L 733.618494 217.845492 
" clip-path="url(#p6498d09406)" style="fill: none; stroke: #e8e6e1; stroke-linecap: square"/>
     </g>
     <g id="line2d_16"/>
     <g id="text_9">
      <!-- bm_myc Severe -->
      <g style="fill: #5a6b78" transform="translate(3.00024 229.120492) scale(0.22 -0.22)">
       <use xlink:href="#IBMPlexMono-Regular-3"/>
       <use xlink:href="#IBMPlexMono-Regular-e" transform="translate(60 0)"/>
       <use xlink:href="#IBMPlexMono-Regular-46" transform="translate(120 0)"/>
       <use xlink:href="#IBMPlexMono-Regular-e" transform="translate(180 0)"/>
       <use xlink:href="#IBMPlexMono-Regular-1a" transform="translate(240 0)"/>
       <use xlink:href="#IBMPlexMono-Regular-4" transform="translate(300 0)"/>
       <use xlink:href="#IBMPlexMono-Regular-114" transform="translate(360 0)"/>
       <use xlink:href="#IBMPlexMono-Regular-2e" transform="translate(420 0)"/>
       <use xlink:href="#IBMPlexMono-Regular-6" transform="translate(480 0)"/>
       <use xlink:href="#IBMPlexMono-Regular-17" transform="translate(540 0)"/>
       <use xlink:href="#IBMPlexMono-Regular-6" transform="translate(600 0)"/>
       <use xlink:href="#IBMPlexMono-Regular-13" transform="translate(660 0)"/>
       <use xlink:href="#IBMPlexMono-Regular-6" transform="translate(720 0)"/>
      </g>
     </g>
    </g>
    <g id="ytick_4">
     <g id="line2d_17">
      <path d="M 178.10024 179.480269 
L 733.618494 179.480269 
" clip-path="url(#p6498d09406)" style="fill: none; stroke: #e8e6e1; stroke-linecap: square"/>
     </g>
     <g id="line2d_18"/>
     <g id="text_10">
      <!-- bm_myc Normal -->
      <g style="fill: #5a6b78" transform="translate(3.00024 190.755269) scale(0.22 -0.22)">
       <use xlink:href="#IBMPlexMono-Regular-3"/>
       <use xlink:href="#IBMPlexMono-Regular-e" transform="translate(60 0)"/>
       <use xlink:href="#IBMPlexMono-Regular-46" transform="translate(120 0)"/>
       <use xlink:href="#IBMPlexMono-Regular-e" transform="translate(180 0)"/>
       <use xlink:href="#IBMPlexMono-Regular-1a" transform="translate(240 0)"/>
       <use xlink:href="#IBMPlexMono-Regular-4" transform="translate(300 0)"/>
       <use xlink:href="#IBMPlexMono-Regular-114" transform="translate(360 0)"/>
       <use xlink:href="#IBMPlexMono-Regular-29" transform="translate(420 0)"/>
       <use xlink:href="#IBMPlexMono-Regular-10" transform="translate(480 0)"/>
       <use xlink:href="#IBMPlexMono-Regular-13" transform="translate(540 0)"/>
       <use xlink:href="#IBMPlexMono-Regular-e" transform="translate(600 0)"/>
       <use xlink:href="#IBMPlexMono-Regular-1" transform="translate(660 0)"/>
       <use xlink:href="#IBMPlexMono-Regular-d" transform="translate(720 0)"/>
      </g>
     </g>
    </g>
    <g id="ytick_5">
     <g id="line2d_19">
      <path d="M 178.10024 141.115045 
L 733.618494 141.115045 
" clip-path="url(#p6498d09406)" style="fill: none; stroke: #e8e6e1; stroke-linecap: square"/>
     </g>
     <g id="line2d_20"/>
     <g id="text_11">
      <!-- rc_cyp Severe -->
      <g style="fill: #5a6b78" transform="translate(3.00024 152.390045) scale(0.22 -0.22)">
       <use xlink:href="#IBMPlexMono-Regular-13"/>
       <use xlink:href="#IBMPlexMono-Regular-4" transform="translate(60 0)"/>
       <use xlink:href="#IBMPlexMono-Regular-46" transform="translate(120 0)"/>
       <use xlink:href="#IBMPlexMono-Regular-4" transform="translate(180 0)"/>
       <use xlink:href="#IBMPlexMono-Regular-1a" transform="translate(240 0)"/>
       <use xlink:href="#IBMPlexMono-Regular-11" transform="translate(300 0)"/>
       <use xlink:href="#IBMPlexMono-Regular-114" transform="translate(360 0)"/>
       <use xlink:href="#IBMPlexMono-Regular-2e" transform="translate(420 0)"/>
       <use xlink:href="#IBMPlexMono-Regular-6" transform="translate(480 0)"/>
       <use xlink:href="#IBMPlexMono-Regular-17" transform="translate(540 0)"/>
       <use xlink:href="#IBMPlexMono-Regular-6" transform="translate(600 0)"/>
       <use xlink:href="#IBMPlexMono-Regular-13" transform="translate(660 0)"/>
       <use xlink:href="#IBMPlexMono-Regular-6" transform="translate(720 0)"/>
      </g>
     </g>
    </g>
    <g id="ytick_6">
     <g id="line2d_21">
      <path d="M 178.10024 102.749821 
L 733.618494 102.749821 
" clip-path="url(#p6498d09406)" style="fill: none; stroke: #e8e6e1; stroke-linecap: square"/>
     </g>
     <g id="line2d_22"/>
     <g id="text_12">
      <!-- rc_cyp Normal -->
      <g style="fill: #5a6b78" transform="translate(3.00024 114.024821) scale(0.22 -0.22)">
       <use xlink:href="#IBMPlexMono-Regular-13"/>
       <use xlink:href="#IBMPlexMono-Regular-4" transform="translate(60 0)"/>
       <use xlink:href="#IBMPlexMono-Regular-46" transform="translate(120 0)"/>
       <use xlink:href="#IBMPlexMono-Regular-4" transform="translate(180 0)"/>
       <use xlink:href="#IBMPlexMono-Regular-1a" transform="translate(240 0)"/>
       <use xlink:href="#IBMPlexMono-Regular-11" transform="translate(300 0)"/>
       <use xlink:href="#IBMPlexMono-Regular-114" transform="translate(360 0)"/>
       <use xlink:href="#IBMPlexMono-Regular-29" transform="translate(420 0)"/>
       <use xlink:href="#IBMPlexMono-Regular-10" transform="translate(480 0)"/>
       <use xlink:href="#IBMPlexMono-Regular-13" transform="translate(540 0)"/>
       <use xlink:href="#IBMPlexMono-Regular-e" transform="translate(600 0)"/>
       <use xlink:href="#IBMPlexMono-Regular-1" transform="translate(660 0)"/>
       <use xlink:href="#IBMPlexMono-Regular-d" transform="translate(720 0)"/>
      </g>
     </g>
    </g>
    <g id="ytick_7">
     <g id="line2d_23">
      <path d="M 178.10024 64.384598 
L 733.618494 64.384598 
" clip-path="url(#p6498d09406)" style="fill: none; stroke: #e8e6e1; stroke-linecap: square"/>
     </g>
     <g id="line2d_24"/>
     <g id="text_13">
      <!-- ra_h5 Severe -->
      <g style="fill: #5a6b78" transform="translate(16.20024 75.659598) scale(0.22 -0.22)">
       <defs>
        <path id="IBMPlexMono-Regular-9" d="M 627 4736 
L 1139 4736 
L 1139 2765 
L 1165 2765 
Q 1216 2886 1293 2998 
Q 1370 3110 1482 3193 
Q 1594 3277 1747 3328 
Q 1901 3379 2106 3379 
Q 2624 3379 2937 3049 
Q 3251 2720 3251 2118 
L 3251 0 
L 2739 0 
L 2739 2029 
Q 2739 2483 2540 2704 
Q 2342 2925 1958 2925 
Q 1805 2925 1657 2886 
Q 1510 2848 1395 2771 
Q 1280 2694 1209 2572 
Q 1139 2451 1139 2291 
L 1139 0 
L 627 0 
L 627 4736 
z
" transform="scale(0.015625)"/>
        <path id="IBMPlexMono-Regular-3b" d="M 3206 4000 
L 1210 4000 
L 1082 2291 
L 1126 2291 
Q 1293 2515 1497 2646 
Q 1702 2778 2061 2778 
Q 2355 2778 2601 2685 
Q 2848 2592 3027 2413 
Q 3206 2234 3308 1981 
Q 3411 1728 3411 1402 
Q 3411 1075 3308 803 
Q 3206 531 3008 336 
Q 2810 141 2528 32 
Q 2246 -77 1888 -77 
Q 1606 -77 1385 -13 
Q 1165 51 995 160 
Q 826 269 698 403 
Q 570 538 467 685 
L 870 992 
Q 960 858 1053 749 
Q 1146 640 1267 560 
Q 1389 480 1542 435 
Q 1696 390 1901 390 
Q 2362 390 2608 640 
Q 2854 890 2854 1331 
L 2854 1382 
Q 2854 1824 2604 2073 
Q 2355 2323 1888 2323 
Q 1568 2323 1392 2214 
Q 1216 2106 1069 1946 
L 614 2010 
L 774 4467 
L 3206 4467 
L 3206 4000 
z
" transform="scale(0.015625)"/>
       </defs>
       <use xlink:href="#IBMPlexMono-Regular-13"/>
       <use xlink:href="#IBMPlexMono-Regular-1" transform="translate(60 0)"/>
       <use xlink:href="#IBMPlexMono-Regular-46" transform="translate(120 0)"/>
       <use xlink:href="#IBMPlexMono-Regular-9" transform="translate(180 0)"/>
       <use xlink:href="#IBMPlexMono-Regular-3b" transform="translate(240 0)"/>
       <use xlink:href="#IBMPlexMono-Regular-114" transform="translate(300 0)"/>
       <use xlink:href="#IBMPlexMono-Regular-2e" transform="translate(360 0)"/>
       <use xlink:href="#IBMPlexMono-Regular-6" transform="translate(420 0)"/>
       <use xlink:href="#IBMPlexMono-Regular-17" transform="translate(480 0)"/>
       <use xlink:href="#IBMPlexMono-Regular-6" transform="translate(540 0)"/>
       <use xlink:href="#IBMPlexMono-Regular-13" transform="translate(600 0)"/>
       <use xlink:href="#IBMPlexMono-Regular-6" transform="translate(660 0)"/>
      </g>
     </g>
    </g>
    <g id="ytick_8">
     <g id="line2d_25">
      <path d="M 178.10024 26.019374 
L 733.618494 26.019374 
" clip-path="url(#p6498d09406)" style="fill: none; stroke: #e8e6e1; stroke-linecap: square"/>
     </g>
     <g id="line2d_26"/>
     <g id="text_14">
      <!-- ra_h5 Normal -->
      <g style="fill: #5a6b78" transform="translate(16.20024 37.294374) scale(0.22 -0.22)">
       <use xlink:href="#IBMPlexMono-Regular-13"/>
       <use xlink:href="#IBMPlexMono-Regular-1" transform="translate(60 0)"/>
       <use xlink:href="#IBMPlexMono-Regular-46" transform="translate(120 0)"/>
       <use xlink:href="#IBMPlexMono-Regular-9" transform="translate(180 0)"/>
       <use xlink:href="#IBMPlexMono-Regular-3b" transform="translate(240 0)"/>
       <use xlink:href="#IBMPlexMono-Regular-114" transform="translate(300 0)"/>
       <use xlink:href="#IBMPlexMono-Regular-29" transform="translate(360 0)"/>
       <use xlink:href="#IBMPlexMono-Regular-10" transform="translate(420 0)"/>
       <use xlink:href="#IBMPlexMono-Regular-13" transform="translate(480 0)"/>
       <use xlink:href="#IBMPlexMono-Regular-e" transform="translate(540 0)"/>
       <use xlink:href="#IBMPlexMono-Regular-1" transform="translate(600 0)"/>
       <use xlink:href="#IBMPlexMono-Regular-d" transform="translate(660 0)"/>
      </g>
     </g>
    </g>
   </g>
   <g id="line2d_27">
    <path d="M 292.826836 26.019374 
L 268.070044 26.019374 
" clip-path="url(#p6498d09406)" style="fill: none; stroke: #7f7f7f; stroke-opacity: 0.55; stroke-width: 2; stroke-linecap: round"/>
   </g>
   <g id="line2d_28">
    <path d="M 292.826836 26.019374 
L 190.780548 26.019374 
" clip-path="url(#p6498d09406)" style="fill: none; stroke: #1f77b4; stroke-opacity: 0.3; stroke-width: 2; stroke-linecap: round"/>
   </g>
   <g id="line2d_29">
    <path d="M 392.457827 64.384598 
L 391.854003 64.384598 
" clip-path="url(#p6498d09406)" style="fill: none; stroke: #7f7f7f; stroke-opacity: 0.55; stroke-width: 2; stroke-linecap: round"/>
   </g>
   <g id="line2d_30">
    <path d="M 392.457827 64.384598 
L 194.403493 64.384598 
" clip-path="url(#p6498d09406)" style="fill: none; stroke: #1f77b4; stroke-opacity: 0.3; stroke-width: 2; stroke-linecap: round"/>
   </g>
   <g id="line2d_31">
    <path d="M 255.99356 102.749821 
L 255.99356 102.749821 
" clip-path="url(#p6498d09406)" style="fill: none; stroke: #7f7f7f; stroke-opacity: 0.55; stroke-width: 2; stroke-linecap: round"/>
   </g>
   <g id="line2d_32">
    <path d="M 255.99356 102.749821 
L 196.81879 102.749821 
" clip-path="url(#p6498d09406)" style="fill: none; stroke: #1f77b4; stroke-opacity: 0.3; stroke-width: 2; stroke-linecap: round"/>
   </g>
   <g id="line2d_33">
    <path d="M 312.753034 141.115045 
L 315.772155 141.115045 
" clip-path="url(#p6498d09406)" style="fill: none; stroke: #7f7f7f; stroke-opacity: 0.55; stroke-width: 2; stroke-linecap: round"/>
   </g>
   <g id="line2d_34">
    <path d="M 312.753034 141.115045 
L 191.988196 141.115045 
" clip-path="url(#p6498d09406)" style="fill: none; stroke: #1f77b4; stroke-opacity: 0.3; stroke-width: 2; stroke-linecap: round"/>
   </g>
   <g id="line2d_35">
    <path d="M 306.110968 179.480269 
L 310.941562 179.480269 
" clip-path="url(#p6498d09406)" style="fill: none; stroke: #7f7f7f; stroke-opacity: 0.55; stroke-width: 2; stroke-linecap: round"/>
   </g>
   <g id="line2d_36">
    <path d="M 306.110968 179.480269 
L 207.687625 179.480269 
" clip-path="url(#p6498d09406)" style="fill: none; stroke: #1f77b4; stroke-opacity: 0.3; stroke-width: 2; stroke-linecap: round"/>
   </g>
   <g id="line2d_37">
    <path d="M 666.594009 217.845492 
L 688.33168 217.845492 
" clip-path="url(#p6498d09406)" style="fill: none; stroke: #7f7f7f; stroke-opacity: 0.55; stroke-width: 2; stroke-linecap: round"/>
   </g>
   <g id="line2d_38">
    <path d="M 666.594009 217.845492 
L 205.272329 217.845492 
" clip-path="url(#p6498d09406)" style="fill: none; stroke: #1f77b4; stroke-opacity: 0.3; stroke-width: 2; stroke-linecap: round"/>
   </g>
   <g id="line2d_39">
    <path d="M 338.717474 256.210716 
L 352.605431 256.210716 
" clip-path="url(#p6498d09406)" style="fill: none; stroke: #7f7f7f; stroke-opacity: 0.55; stroke-width: 2; stroke-linecap: round"/>
   </g>
   <g id="line2d_40">
    <path d="M 338.717474 256.210716 
L 344.151892 256.210716 
" clip-path="url(#p6498d09406)" style="fill: none; stroke: #1f77b4; stroke-opacity: 0.3; stroke-width: 2; stroke-linecap: round"/>
   </g>
   <g id="line2d_41">
    <path d="M 371.323981 294.575939 
L 468.539675 294.575939 
" clip-path="url(#p6498d09406)" style="fill: none; stroke: #7f7f7f; stroke-opacity: 0.55; stroke-width: 2; stroke-linecap: round"/>
   </g>
   <g id="line2d_42">
    <path d="M 371.323981 294.575939 
L 581.454799 294.575939 
" clip-path="url(#p6498d09406)" style="fill: none; stroke: #1f77b4; stroke-opacity: 0.3; stroke-width: 2; stroke-linecap: round"/>
   </g>
   <g id="patch_3">
    <path d="M 178.10024 321.431596 
L 178.10024 3.00024 
" style="fill: none; stroke: #e8e6e1; stroke-linejoin: miter; stroke-linecap: square"/>
   </g>
   <g id="patch_4">
    <path d="M 178.10024 321.431596 
L 733.618494 321.431596 
" style="fill: none; stroke: #e8e6e1; stroke-linejoin: miter; stroke-linecap: square"/>
   </g>
   <g id="text_15">
    <!-- 10 conditions -->
    <g style="fill: #152a3a" transform="translate(492.088819 28.012882) scale(0.213 -0.213)">
     <defs>
      <path id="Inter-SemiBold-103" d="M 2241 4656 
L 2241 0 
L 1413 0 
L 1413 3913 
L 1381 3913 
L 294 3131 
L 294 3925 
L 1316 4656 
L 2241 4656 
z
" transform="scale(0.015625)"/>
      <path id="Inter-SemiBold-102" d="M 2109 -63 
Q 1547 -63 1147 220 
Q 747 503 534 1036 
Q 322 1569 322 2325 
Q 322 3081 536 3615 
Q 750 4150 1148 4434 
Q 1547 4719 2109 4719 
Q 2675 4719 3075 4434 
Q 3475 4150 3687 3615 
Q 3900 3081 3900 2325 
Q 3900 1569 3689 1036 
Q 3478 503 3078 220 
Q 2678 -63 2109 -63 
z
M 2113 638 
Q 2416 638 2627 836 
Q 2838 1034 2948 1411 
Q 3059 1788 3059 2325 
Q 3059 2866 2948 3244 
Q 2838 3622 2627 3822 
Q 2416 4022 2113 4022 
Q 1806 4022 1595 3822 
Q 1384 3622 1273 3244 
Q 1163 2866 1163 2325 
Q 1163 1788 1272 1411 
Q 1381 1034 1593 836 
Q 1806 638 2113 638 
z
" transform="scale(0.015625)"/>
      <path id="Inter-SemiBold-1cd" transform="scale(0.015625)"/>
      <path id="Inter-SemiBold-92" d="M 1947 -72 
Q 1438 -72 1063 154 
Q 688 381 483 786 
Q 278 1191 278 1728 
Q 278 2272 483 2680 
Q 688 3088 1063 3313 
Q 1438 3538 1947 3538 
Q 2238 3538 2488 3463 
Q 2738 3388 2934 3245 
Q 3131 3103 3264 2900 
Q 3397 2697 3453 2441 
L 2694 2281 
Q 2659 2416 2595 2527 
Q 2531 2638 2437 2716 
Q 2344 2794 2222 2836 
Q 2100 2878 1953 2878 
Q 1669 2878 1481 2726 
Q 1294 2575 1200 2317 
Q 1106 2059 1106 1731 
Q 1106 1409 1200 1150 
Q 1294 891 1481 739 
Q 1669 588 1953 588 
Q 2103 588 2226 631 
Q 2350 675 2445 756 
Q 2541 838 2606 953 
Q 2672 1069 2703 1209 
L 3463 1050 
Q 3406 788 3273 581 
Q 3141 375 2942 229 
Q 2744 84 2492 6 
Q 2241 -72 1947 -72 
z
" transform="scale(0.015625)"/>
      <path id="Inter-SemiBold-c3" d="M 1947 -72 
Q 1438 -72 1063 154 
Q 688 381 483 786 
Q 278 1191 278 1728 
Q 278 2272 483 2680 
Q 688 3088 1063 3313 
Q 1438 3538 1947 3538 
Q 2459 3538 2834 3313 
Q 3209 3088 3414 2680 
Q 3619 2272 3619 1728 
Q 3619 1191 3414 786 
Q 3209 381 2834 154 
Q 2459 -72 1947 -72 
z
M 1947 588 
Q 2231 588 2420 741 
Q 2609 894 2701 1153 
Q 2794 1413 2794 1731 
Q 2794 2053 2701 2312 
Q 2609 2572 2420 2725 
Q 2231 2878 1947 2878 
Q 1663 2878 1477 2725 
Q 1291 2572 1198 2314 
Q 1106 2056 1106 1731 
Q 1106 1413 1198 1153 
Q 1291 894 1477 741 
Q 1663 588 1947 588 
z
" transform="scale(0.015625)"/>
      <path id="Inter-SemiBold-be" d="M 1244 2047 
L 1244 0 
L 431 0 
L 431 3494 
L 1200 3494 
L 1213 2631 
L 1147 2631 
Q 1294 3084 1578 3311 
Q 1863 3538 2291 3538 
Q 2650 3538 2919 3384 
Q 3188 3231 3336 2937 
Q 3484 2644 3484 2222 
L 3484 0 
L 2672 0 
L 2672 2097 
Q 2672 2447 2490 2647 
Q 2309 2847 1991 2847 
Q 1775 2847 1606 2753 
Q 1438 2659 1341 2479 
Q 1244 2300 1244 2047 
z
" transform="scale(0.015625)"/>
      <path id="Inter-SemiBold-95" d="M 1719 -63 
Q 1306 -63 979 148 
Q 653 359 465 762 
Q 278 1166 278 1741 
Q 278 2322 470 2723 
Q 663 3125 989 3331 
Q 1316 3538 1716 3538 
Q 2028 3538 2226 3433 
Q 2425 3328 2542 3184 
Q 2659 3041 2719 2916 
L 2753 2916 
L 2753 4656 
L 3566 4656 
L 3566 0 
L 2769 0 
L 2769 553 
L 2719 553 
Q 2656 428 2536 284 
Q 2416 141 2219 39 
Q 2022 -63 1719 -63 
z
M 1941 606 
Q 2206 606 2390 748 
Q 2575 891 2672 1147 
Q 2769 1403 2769 1744 
Q 2769 2084 2673 2336 
Q 2578 2588 2392 2728 
Q 2206 2869 1941 2869 
Q 1666 2869 1481 2723 
Q 1297 2578 1203 2323 
Q 1109 2069 1109 1744 
Q 1109 1419 1203 1161 
Q 1297 903 1483 754 
Q 1669 606 1941 606 
z
" transform="scale(0.015625)"/>
      <path id="Inter-SemiBold-a7" d="M 431 0 
L 431 3494 
L 1244 3494 
L 1244 0 
L 431 0 
z
M 838 3988 
Q 644 3988 505 4119 
Q 366 4250 366 4431 
Q 366 4619 505 4748 
Q 644 4878 838 4878 
Q 1035 4878 1174 4748 
Q 1313 4619 1313 4434 
Q 1313 4250 1174 4119 
Q 1035 3988 838 3988 
z
" transform="scale(0.015625)"/>
      <path id="Inter-SemiBold-d9" d="M 2047 3494 
L 2047 2856 
L 63 2856 
L 63 3494 
L 2047 3494 
z
M 559 4325 
L 1372 4325 
L 1372 984 
Q 1372 794 1453 705 
Q 1534 616 1719 616 
Q 1775 616 1867 630 
Q 1959 644 2016 656 
L 2144 28 
Q 2009 -13 1868 -30 
Q 1728 -47 1600 -47 
Q 1097 -47 828 203 
Q 559 453 559 916 
L 559 4325 
z
" transform="scale(0.015625)"/>
      <path id="Inter-SemiBold-d5" d="M 1753 -72 
Q 1350 -72 1040 43 
Q 731 159 532 381 
Q 334 603 275 919 
L 1034 1063 
Q 1106 803 1289 676 
Q 1472 550 1769 550 
Q 2069 550 2245 670 
Q 2422 791 2422 969 
Q 2422 1119 2306 1217 
Q 2191 1316 1950 1369 
L 1353 1497 
Q 859 1603 615 1847 
Q 372 2091 372 2475 
Q 372 2800 550 3037 
Q 728 3275 1045 3406 
Q 1363 3538 1781 3538 
Q 2178 3538 2464 3425 
Q 2750 3313 2926 3111 
Q 3103 2909 3172 2638 
L 2447 2494 
Q 2388 2678 2231 2804 
Q 2075 2931 1791 2931 
Q 1531 2931 1357 2817 
Q 1184 2703 1184 2525 
Q 1184 2372 1300 2272 
Q 1416 2172 1681 2116 
L 2275 1991 
Q 2772 1884 3012 1650 
Q 3253 1416 3253 1047 
Q 3253 716 3062 464 
Q 2872 213 2533 70 
Q 2194 -72 1753 -72 
z
" transform="scale(0.015625)"/>
     </defs>
     <use xlink:href="#Inter-SemiBold-103"/>
     <use xlink:href="#Inter-SemiBold-102" transform="translate(42.28125 0)"/>
     <use xlink:href="#Inter-SemiBold-1cd" transform="translate(108.25 0)"/>
     <use xlink:href="#Inter-SemiBold-92" transform="translate(133.453125 0)"/>
     <use xlink:href="#Inter-SemiBold-c3" transform="translate(191.703125 0)"/>
     <use xlink:href="#Inter-SemiBold-be" transform="translate(252.59375 0)"/>
     <use xlink:href="#Inter-SemiBold-95" transform="translate(313.78125 0)"/>
     <use xlink:href="#Inter-SemiBold-a7" transform="translate(376.1875 0)"/>
     <use xlink:href="#Inter-SemiBold-d9" transform="translate(402.359375 0)"/>
     <use xlink:href="#Inter-SemiBold-a7" transform="translate(437.65625 0)"/>
     <use xlink:href="#Inter-SemiBold-c3" transform="translate(463.828125 0)"/>
     <use xlink:href="#Inter-SemiBold-be" transform="translate(524.71875 0)"/>
     <use xlink:href="#Inter-SemiBold-d5" transform="translate(585.90625 0)"/>
    </g>
   </g>
   <g id="text_16">
    <!-- +2 that MISS the anchor -->
    <g style="fill: #152a3a" transform="translate(492.088819 54.868538) scale(0.213 -0.213)">
     <defs>
      <path id="Inter-SemiBold-181" d="M 1800 734 
L 1800 3878 
L 2506 3878 
L 2506 734 
L 1800 734 
z
M 584 1975 
L 584 2640 
L 3725 2640 
L 3725 1975 
L 584 1975 
z
" transform="scale(0.015625)"/>
      <path id="Inter-SemiBold-104" d="M 419 0 
L 419 600 
L 2034 2191 
Q 2263 2425 2417 2606 
Q 2572 2788 2651 2958 
Q 2731 3128 2731 3328 
Q 2731 3547 2629 3706 
Q 2528 3866 2354 3952 
Q 2181 4038 1959 4038 
Q 1725 4038 1551 3944 
Q 1378 3850 1284 3676 
Q 1191 3503 1191 3263 
L 394 3263 
Q 394 3703 595 4031 
Q 797 4359 1151 4539 
Q 1506 4719 1969 4719 
Q 2434 4719 2787 4544 
Q 3141 4369 3337 4064 
Q 3534 3759 3534 3369 
Q 3534 3109 3437 2862 
Q 3341 2616 3091 2305 
Q 2841 1994 2384 1556 
L 1575 731 
L 1575 697 
L 3603 697 
L 3603 0 
L 419 0 
z
" transform="scale(0.015625)"/>
      <path id="Inter-SemiBold-a4" d="M 1244 2047 
L 1244 0 
L 431 0 
L 431 4656 
L 1231 4656 
L 1231 2631 
L 1147 2631 
Q 1294 3084 1578 3311 
Q 1863 3538 2291 3538 
Q 2650 3538 2920 3384 
Q 3191 3231 3339 2937 
Q 3488 2644 3488 2222 
L 3488 0 
L 2672 0 
L 2672 2097 
Q 2672 2447 2490 2647 
Q 2309 2847 1991 2847 
Q 1775 2847 1606 2753 
Q 1438 2659 1341 2479 
Q 1244 2300 1244 2047 
z
" transform="scale(0.015625)"/>
      <path id="Inter-SemiBold-82" d="M 1406 -72 
Q 1075 -72 809 48 
Q 544 169 391 403 
Q 238 638 238 981 
Q 238 1278 348 1472 
Q 459 1666 648 1781 
Q 838 1897 1075 1956 
Q 1313 2016 1569 2041 
Q 1872 2075 2062 2100 
Q 2253 2125 2342 2181 
Q 2431 2238 2431 2356 
L 2431 2372 
Q 2431 2544 2362 2664 
Q 2294 2784 2158 2848 
Q 2022 2913 1822 2913 
Q 1619 2913 1470 2850 
Q 1322 2788 1228 2688 
Q 1134 2588 1091 2472 
L 338 2625 
Q 441 2934 656 3136 
Q 872 3338 1170 3438 
Q 1469 3538 1819 3538 
Q 2066 3538 2317 3480 
Q 2569 3422 2778 3284 
Q 2988 3147 3116 2915 
Q 3244 2684 3244 2334 
L 3244 0 
L 2466 0 
L 2466 481 
L 2434 481 
Q 2356 334 2220 207 
Q 2084 81 1882 4 
Q 1681 -72 1406 -72 
z
M 1616 531 
Q 1869 531 2051 631 
Q 2234 731 2336 895 
Q 2438 1059 2438 1253 
L 2438 1666 
Q 2397 1634 2301 1606 
Q 2206 1578 2089 1556 
Q 1972 1534 1858 1518 
Q 1744 1503 1666 1494 
Q 1484 1469 1337 1412 
Q 1191 1356 1108 1254 
Q 1025 1153 1025 991 
Q 1025 841 1101 739 
Q 1178 638 1311 584 
Q 1444 531 1616 531 
z
" transform="scale(0.015625)"/>
      <path id="Inter-SemiBold-3a" d="M 469 0 
L 469 4656 
L 1725 4656 
L 2609 2253 
Q 2656 2119 2714 1908 
Q 2772 1697 2833 1453 
Q 2894 1209 2948 976 
Q 3003 744 3041 566 
L 2872 566 
Q 2909 741 2964 970 
Q 3019 1200 3080 1445 
Q 3141 1691 3198 1903 
Q 3256 2116 3300 2253 
L 4175 4656 
L 5434 4656 
L 5434 0 
L 4603 0 
L 4603 2350 
Q 4603 2500 4606 2712 
Q 4609 2925 4615 3169 
Q 4622 3413 4628 3661 
Q 4634 3909 4634 4134 
L 4694 4134 
Q 4631 3888 4557 3630 
Q 4484 3372 4412 3130 
Q 4341 2888 4277 2684 
Q 4213 2481 4166 2350 
L 3306 0 
L 2597 0 
L 1725 2350 
Q 1678 2481 1614 2679 
Q 1550 2878 1476 3118 
Q 1403 3359 1329 3620 
Q 1256 3881 1184 4134 
L 1253 4134 
Q 1256 3925 1262 3679 
Q 1269 3434 1273 3187 
Q 1278 2941 1283 2723 
Q 1288 2506 1288 2350 
L 1288 0 
L 469 0 
z
" transform="scale(0.015625)"/>
      <path id="Inter-SemiBold-29" d="M 1303 4656 
L 1303 0 
L 469 0 
L 469 4656 
L 1303 4656 
z
" transform="scale(0.015625)"/>
      <path id="Inter-SemiBold-5a" d="M 2103 -72 
Q 1563 -72 1164 97 
Q 766 266 541 587 
Q 316 909 297 1369 
L 1119 1369 
Q 1141 1125 1272 962 
Q 1403 800 1618 720 
Q 1834 641 2097 641 
Q 2372 641 2583 725 
Q 2794 809 2912 961 
Q 3031 1113 3031 1313 
Q 3031 1494 2926 1612 
Q 2822 1731 2633 1814 
Q 2444 1897 2191 1959 
L 1663 2097 
Q 1078 2247 751 2550 
Q 425 2853 425 3347 
Q 425 3759 647 4068 
Q 869 4378 1253 4548 
Q 1638 4719 2125 4719 
Q 2622 4719 2997 4547 
Q 3372 4375 3583 4072 
Q 3794 3769 3803 3381 
L 2994 3381 
Q 2963 3681 2727 3845 
Q 2491 4009 2113 4009 
Q 1850 4009 1661 3929 
Q 1472 3850 1370 3712 
Q 1269 3575 1269 3397 
Q 1269 3203 1389 3078 
Q 1509 2953 1692 2878 
Q 1875 2803 2063 2756 
L 2497 2644 
Q 2756 2581 3000 2478 
Q 3244 2375 3439 2217 
Q 3634 2059 3750 1834 
Q 3866 1609 3866 1306 
Q 3866 897 3656 586 
Q 3447 275 3053 101 
Q 2659 -72 2103 -72 
z
" transform="scale(0.015625)"/>
      <path id="Inter-SemiBold-97" d="M 1975 -72 
Q 1447 -72 1067 150 
Q 688 372 483 775 
Q 278 1178 278 1725 
Q 278 2266 479 2672 
Q 681 3078 1051 3308 
Q 1422 3538 1922 3538 
Q 2241 3538 2530 3434 
Q 2819 3331 3042 3115 
Q 3266 2900 3392 2567 
Q 3519 2234 3519 1775 
L 3519 1519 
L 663 1519 
L 663 2072 
L 3116 2072 
L 2734 1909 
Q 2734 2203 2643 2426 
Q 2553 2650 2373 2775 
Q 2194 2900 1925 2900 
Q 1656 2900 1468 2773 
Q 1281 2647 1182 2436 
Q 1084 2225 1084 1966 
L 1084 1584 
Q 1084 1253 1196 1025 
Q 1309 797 1512 681 
Q 1716 566 1984 566 
Q 2163 566 2308 617 
Q 2453 669 2559 770 
Q 2666 872 2719 1019 
L 3466 866 
Q 3381 584 3178 373 
Q 2975 163 2670 45 
Q 2366 -72 1975 -72 
z
" transform="scale(0.015625)"/>
      <path id="Inter-SemiBold-d2" d="M 431 0 
L 431 3494 
L 1219 3494 
L 1219 2909 
L 1256 2909 
Q 1350 3213 1584 3377 
Q 1819 3541 2119 3541 
Q 2188 3541 2272 3534 
Q 2356 3528 2416 3519 
L 2416 2772 
Q 2366 2788 2253 2800 
Q 2141 2813 2031 2813 
Q 1806 2813 1626 2716 
Q 1447 2619 1345 2448 
Q 1244 2278 1244 2056 
L 1244 0 
L 431 0 
z
" transform="scale(0.015625)"/>
     </defs>
     <use xlink:href="#Inter-SemiBold-181"/>
     <use xlink:href="#Inter-SemiBold-104" transform="translate(64.75 0)"/>
     <use xlink:href="#Inter-SemiBold-1cd" transform="translate(127.0625 0)"/>
     <use xlink:href="#Inter-SemiBold-d9" transform="translate(152.265625 0)"/>
     <use xlink:href="#Inter-SemiBold-a4" transform="translate(187.765625 0)"/>
     <use xlink:href="#Inter-SemiBold-82" transform="translate(249 0)"/>
     <use xlink:href="#Inter-SemiBold-d9" transform="translate(306.421875 0)"/>
     <use xlink:href="#Inter-SemiBold-1cd" transform="translate(341.71875 0)"/>
     <use xlink:href="#Inter-SemiBold-3a" transform="translate(366.921875 0)"/>
     <use xlink:href="#Inter-SemiBold-29" transform="translate(459.15625 0)"/>
     <use xlink:href="#Inter-SemiBold-5a" transform="translate(486.84375 0)"/>
     <use xlink:href="#Inter-SemiBold-5a" transform="translate(551.890625 0)"/>
     <use xlink:href="#Inter-SemiBold-1cd" transform="translate(616.9375 0)"/>
     <use xlink:href="#Inter-SemiBold-d9" transform="translate(642.140625 0)"/>
     <use xlink:href="#Inter-SemiBold-a4" transform="translate(677.640625 0)"/>
     <use xlink:href="#Inter-SemiBold-97" transform="translate(738.875 0)"/>
     <use xlink:href="#Inter-SemiBold-1cd" transform="translate(798 0)"/>
     <use xlink:href="#Inter-SemiBold-82" transform="translate(823.203125 0)"/>
     <use xlink:href="#Inter-SemiBold-be" transform="translate(880.625 0)"/>
     <use xlink:href="#Inter-SemiBold-92" transform="translate(941.8125 0)"/>
     <use xlink:href="#Inter-SemiBold-a4" transform="translate(1000.0625 0)"/>
     <use xlink:href="#Inter-SemiBold-c3" transform="translate(1061.296875 0)"/>
     <use xlink:href="#Inter-SemiBold-d2" transform="translate(1122.1875 0)"/>
    </g>
   </g>
   <g id="text_17">
    <!-- +2 that REACH it -->
    <g style="fill: #152a3a" transform="translate(492.088819 81.724195) scale(0.213 -0.213)">
     <defs>
      <path id="Inter-SemiBold-57" d="M 469 0 
L 469 4656 
L 2209 4656 
Q 2744 4656 3109 4468 
Q 3475 4281 3662 3945 
Q 3850 3609 3850 3166 
Q 3850 2722 3661 2394 
Q 3472 2066 3103 1887 
Q 2734 1709 2197 1709 
L 953 1709 
L 953 2400 
L 2088 2400 
Q 2403 2400 2603 2489 
Q 2803 2578 2900 2750 
Q 2997 2922 2997 3166 
Q 2997 3416 2900 3592 
Q 2803 3769 2601 3862 
Q 2400 3956 2081 3956 
L 1303 3956 
L 1303 0 
L 469 0 
z
M 3088 0 
L 1956 2113 
L 2869 2113 
L 4022 0 
L 3088 0 
z
" transform="scale(0.015625)"/>
      <path id="Inter-SemiBold-17" d="M 469 0 
L 469 4656 
L 3494 4656 
L 3494 3953 
L 1303 3953 
L 1303 2697 
L 3331 2697 
L 3331 2003 
L 1303 2003 
L 1303 703 
L 3506 703 
L 3506 0 
L 469 0 
z
" transform="scale(0.015625)"/>
      <path id="Inter-SemiBold-2" d="M 156 0 
L 1781 4656 
L 2841 4656 
L 4503 0 
L 3588 0 
L 2759 2419 
Q 2638 2794 2506 3267 
Q 2375 3741 2216 4344 
L 2391 4344 
Q 2234 3734 2107 3257 
Q 1981 2781 1869 2419 
L 1069 0 
L 156 0 
z
M 1103 1153 
L 1103 1825 
L 3556 1825 
L 3556 1153 
L 1103 1153 
z
" transform="scale(0.015625)"/>
      <path id="Inter-SemiBold-12" d="M 2453 -63 
Q 1841 -63 1359 221 
Q 878 506 600 1040 
Q 322 1575 322 2325 
Q 322 3078 601 3614 
Q 881 4150 1364 4434 
Q 1847 4719 2453 4719 
Q 2834 4719 3167 4611 
Q 3500 4503 3761 4295 
Q 4022 4088 4190 3788 
Q 4359 3488 4416 3106 
L 3575 3106 
Q 3534 3316 3436 3475 
Q 3338 3634 3191 3745 
Q 3044 3856 2859 3914 
Q 2675 3972 2466 3972 
Q 2084 3972 1789 3780 
Q 1494 3588 1326 3220 
Q 1159 2853 1159 2325 
Q 1159 1791 1328 1425 
Q 1497 1059 1792 871 
Q 2088 684 2463 684 
Q 2672 684 2856 742 
Q 3041 800 3189 911 
Q 3338 1022 3438 1183 
Q 3538 1344 3575 1550 
L 4419 1550 
Q 4372 1216 4214 923 
Q 4056 631 3800 409 
Q 3544 188 3205 62 
Q 2866 -63 2453 -63 
z
" transform="scale(0.015625)"/>
      <path id="Inter-SemiBold-26" d="M 469 0 
L 469 4656 
L 1303 4656 
L 1303 2731 
L 3469 2731 
L 3469 4656 
L 4303 4656 
L 4303 0 
L 3469 0 
L 3469 2028 
L 1303 2028 
L 1303 0 
L 469 0 
z
" transform="scale(0.015625)"/>
     </defs>
     <use xlink:href="#Inter-SemiBold-181"/>
     <use xlink:href="#Inter-SemiBold-104" transform="translate(64.75 0)"/>
     <use xlink:href="#Inter-SemiBold-1cd" transform="translate(127.0625 0)"/>
     <use xlink:href="#Inter-SemiBold-d9" transform="translate(152.265625 0)"/>
     <use xlink:href="#Inter-SemiBold-a4" transform="translate(187.765625 0)"/>
     <use xlink:href="#Inter-SemiBold-82" transform="translate(249 0)"/>
     <use xlink:href="#Inter-SemiBold-d9" transform="translate(306.421875 0)"/>
     <use xlink:href="#Inter-SemiBold-1cd" transform="translate(341.71875 0)"/>
     <use xlink:href="#Inter-SemiBold-57" transform="translate(366.921875 0)"/>
     <use xlink:href="#Inter-SemiBold-17" transform="translate(432.15625 0)"/>
     <use xlink:href="#Inter-SemiBold-2" transform="translate(492.703125 0)"/>
     <use xlink:href="#Inter-SemiBold-12" transform="translate(561.5 0)"/>
     <use xlink:href="#Inter-SemiBold-26" transform="translate(635.1875 0)"/>
     <use xlink:href="#Inter-SemiBold-1cd" transform="translate(709.75 0)"/>
     <use xlink:href="#Inter-SemiBold-a7" transform="translate(734.953125 0)"/>
     <use xlink:href="#Inter-SemiBold-d9" transform="translate(761.125 0)"/>
    </g>
   </g>
   <g id="patch_5">
    <path d="M 621.454803 262.226062 
Q 604.398978 273.625554 588.365639 284.341655 
" style="fill: none; stroke: #5a6b78; stroke-width: 1.1; stroke-linecap: round"/>
    <path d="M 597.239534 283.221837 
L 588.365639 284.341655 
L 592.794122 276.570648 
" style="fill: none; stroke: #5a6b78; stroke-width: 1.1; stroke-linecap: round"/>
   </g>
   <g id="text_18">
    <!-- anchor never reached -->
    <g style="fill: #5a6b78" transform="translate(540.394754 254.292455) scale(0.2 -0.2)">
     <defs>
      <path id="Inter-Regular-be" d="M 1056 2094 
L 1056 0 
L 494 0 
L 494 3494 
L 1034 3494 
L 1038 2647 
L 959 2647 
Q 1119 3131 1414 3334 
Q 1709 3538 2106 3538 
Q 2459 3538 2725 3392 
Q 2991 3247 3139 2955 
Q 3288 2663 3288 2219 
L 3288 0 
L 2725 0 
L 2725 2172 
Q 2725 2575 2514 2803 
Q 2303 3031 1938 3031 
Q 1688 3031 1488 2922 
Q 1288 2813 1172 2603 
Q 1056 2394 1056 2094 
z
" transform="scale(0.015625)"/>
      <path id="Inter-Regular-92" d="M 1916 -75 
Q 1441 -75 1083 150 
Q 725 375 525 781 
Q 325 1188 325 1725 
Q 325 2272 525 2680 
Q 725 3088 1083 3313 
Q 1441 3538 1916 3538 
Q 2169 3538 2394 3472 
Q 2619 3406 2805 3282 
Q 2991 3159 3125 2979 
Q 3259 2800 3331 2572 
L 2791 2419 
Q 2753 2553 2675 2665 
Q 2597 2778 2486 2861 
Q 2375 2944 2231 2989 
Q 2088 3034 1916 3034 
Q 1566 3034 1341 2851 
Q 1116 2669 1006 2372 
Q 897 2075 897 1725 
Q 897 1381 1006 1086 
Q 1116 791 1341 609 
Q 1566 428 1916 428 
Q 2091 428 2237 475 
Q 2384 522 2498 608 
Q 2613 694 2691 812 
Q 2769 931 2806 1072 
L 3344 919 
Q 3275 684 3139 501 
Q 3003 319 2815 189 
Q 2628 59 2400 -8 
Q 2172 -75 1916 -75 
z
" transform="scale(0.015625)"/>
      <path id="Inter-Regular-a4" d="M 1056 2094 
L 1056 0 
L 494 0 
L 494 4656 
L 1056 4656 
L 1056 2647 
L 959 2647 
Q 1119 3131 1414 3334 
Q 1709 3538 2106 3538 
Q 2459 3538 2726 3392 
Q 2994 3247 3142 2955 
Q 3291 2663 3291 2219 
L 3291 0 
L 2725 0 
L 2725 2172 
Q 2725 2575 2514 2803 
Q 2303 3031 1938 3031 
Q 1688 3031 1488 2922 
Q 1288 2813 1172 2603 
Q 1056 2394 1056 2094 
z
" transform="scale(0.015625)"/>
      <path id="Inter-Regular-e6" d="M 1503 0 
L 169 3494 
L 784 3494 
L 1528 1422 
Q 1647 1100 1730 779 
Q 1813 459 1903 159 
L 1697 159 
Q 1788 459 1870 779 
Q 1953 1100 2069 1422 
L 2813 3494 
L 3428 3494 
L 2094 0 
L 1503 0 
z
" transform="scale(0.015625)"/>
      <path id="Inter-Regular-95" d="M 1803 -75 
Q 1369 -75 1034 147 
Q 700 369 512 775 
Q 325 1181 325 1738 
Q 325 2291 514 2695 
Q 703 3100 1037 3319 
Q 1372 3538 1806 3538 
Q 2147 3538 2347 3425 
Q 2547 3313 2655 3170 
Q 2763 3028 2819 2934 
L 2863 2934 
L 2863 4656 
L 3425 4656 
L 3425 0 
L 2881 0 
L 2881 541 
L 2819 541 
Q 2763 444 2652 298 
Q 2541 153 2339 39 
Q 2138 -75 1803 -75 
z
M 1888 428 
Q 2206 428 2425 595 
Q 2644 763 2756 1059 
Q 2869 1356 2869 1744 
Q 2869 2131 2758 2420 
Q 2647 2709 2428 2871 
Q 2209 3034 1888 3034 
Q 1556 3034 1336 2862 
Q 1116 2691 1006 2398 
Q 897 2106 897 1744 
Q 897 1378 1008 1079 
Q 1119 781 1341 604 
Q 1563 428 1888 428 
z
" transform="scale(0.015625)"/>
     </defs>
     <use xlink:href="#Inter-Regular-82"/>
     <use xlink:href="#Inter-Regular-be" transform="translate(56.15625 0)"/>
     <use xlink:href="#Inter-Regular-92" transform="translate(115.234375 0)"/>
     <use xlink:href="#Inter-Regular-a4" transform="translate(172.359375 0)"/>
     <use xlink:href="#Inter-Regular-c3" transform="translate(231.484375 0)"/>
     <use xlink:href="#Inter-Regular-d2" transform="translate(291.453125 0)"/>
     <use xlink:href="#Inter-Regular-1cd" transform="translate(329.09375 0)"/>
     <use xlink:href="#Inter-Regular-be" transform="translate(357.21875 0)"/>
     <use xlink:href="#Inter-Regular-97" transform="translate(416.296875 0)"/>
     <use xlink:href="#Inter-Regular-e6" transform="translate(472.640625 0)"/>
     <use xlink:href="#Inter-Regular-97" transform="translate(526.890625 0)"/>
     <use xlink:href="#Inter-Regular-d2" transform="translate(585.1875 0)"/>
     <use xlink:href="#Inter-Regular-1cd" transform="translate(622.828125 0)"/>
     <use xlink:href="#Inter-Regular-d2" transform="translate(650.953125 0)"/>
     <use xlink:href="#Inter-Regular-97" transform="translate(686.9375 0)"/>
     <use xlink:href="#Inter-Regular-82" transform="translate(746.21875 0)"/>
     <use xlink:href="#Inter-Regular-92" transform="translate(802.375 0)"/>
     <use xlink:href="#Inter-Regular-a4" transform="translate(859.5 0)"/>
     <use xlink:href="#Inter-Regular-97" transform="translate(918.625 0)"/>
     <use xlink:href="#Inter-Regular-95" transform="translate(976.921875 0)"/>
    </g>
   </g>
   <g id="PathCollection_1">
    <defs>
     <path id="m5700abfaf1" d="M 0 6.184658 
C 1.640191 6.184658 3.213424 5.533004 4.373214 4.373214 
C 5.533004 3.213424 6.184658 1.640191 6.184658 0 
C 6.184658 -1.640191 5.533004 -3.213424 4.373214 -4.373214 
C 3.213424 -5.533004 1.640191 -6.184658 0 -6.184658 
C -1.640191 -6.184658 -3.213424 -5.533004 -4.373214 -4.373214 
C -5.533004 -3.213424 -6.184658 -1.640191 -6.184658 0 
C -6.184658 1.640191 -5.533004 3.213424 -4.373214 4.373214 
C -3.213424 5.533004 -1.640191 6.184658 0 6.184658 
z
" style="stroke: #ffffff; stroke-width: 2"/>
    </defs>
    <g clip-path="url(#p6498d09406)">
     <use xlink:href="#m5700abfaf1" x="292.826836" y="26.019374" style="fill: #7f7f7f; stroke: #ffffff; stroke-width: 2"/>
    </g>
   </g>
   <g id="PathCollection_2">
    <g clip-path="url(#p6498d09406)">
     <use xlink:href="#m5700abfaf1" x="392.457827" y="64.384598" style="fill: #7f7f7f; stroke: #ffffff; stroke-width: 2"/>
    </g>
   </g>
   <g id="PathCollection_3">
    <g clip-path="url(#p6498d09406)">
     <use xlink:href="#m5700abfaf1" x="255.99356" y="102.749821" style="fill: #7f7f7f; stroke: #ffffff; stroke-width: 2"/>
    </g>
   </g>
   <g id="PathCollection_4">
    <g clip-path="url(#p6498d09406)">
     <use xlink:href="#m5700abfaf1" x="312.753034" y="141.115045" style="fill: #7f7f7f; stroke: #ffffff; stroke-width: 2"/>
    </g>
   </g>
   <g id="PathCollection_5">
    <g clip-path="url(#p6498d09406)">
     <use xlink:href="#m5700abfaf1" x="306.110968" y="179.480269" style="fill: #7f7f7f; stroke: #ffffff; stroke-width: 2"/>
    </g>
   </g>
   <g id="PathCollection_6">
    <g clip-path="url(#p6498d09406)">
     <use xlink:href="#m5700abfaf1" x="666.594009" y="217.845492" style="fill: #7f7f7f; stroke: #ffffff; stroke-width: 2"/>
    </g>
   </g>
   <g id="PathCollection_7">
    <g clip-path="url(#p6498d09406)">
     <use xlink:href="#m5700abfaf1" x="338.717474" y="256.210716" style="fill: #7f7f7f; stroke: #ffffff; stroke-width: 2"/>
    </g>
   </g>
   <g id="PathCollection_8">
    <g clip-path="url(#p6498d09406)">
     <use xlink:href="#m5700abfaf1" x="371.323981" y="294.575939" style="fill: #7f7f7f; stroke: #ffffff; stroke-width: 2"/>
    </g>
   </g>
   <g id="PathCollection_9">
    <defs>
     <path id="m2f9727f1fb" d="M 0 6.184658 
C 1.640191 6.184658 3.213424 5.533004 4.373214 4.373214 
C 5.533004 3.213424 6.184658 1.640191 6.184658 0 
C 6.184658 -1.640191 5.533004 -3.213424 4.373214 -4.373214 
C 3.213424 -5.533004 1.640191 -6.184658 0 -6.184658 
C -1.640191 -6.184658 -3.213424 -5.533004 -4.373214 -4.373214 
C -5.533004 -3.213424 -6.184658 -1.640191 -6.184658 0 
C -6.184658 1.640191 -5.533004 3.213424 -4.373214 4.373214 
C -3.213424 5.533004 -1.640191 6.184658 0 6.184658 
z
" style="stroke: #ffffff; stroke-width: 2"/>
    </defs>
    <g clip-path="url(#p6498d09406)">
     <use xlink:href="#m2f9727f1fb" x="268.070044" y="26.019374" style="fill: #ff7f0e; stroke: #ffffff; stroke-width: 2"/>
    </g>
   </g>
   <g id="PathCollection_10">
    <g clip-path="url(#p6498d09406)">
     <use xlink:href="#m2f9727f1fb" x="391.854003" y="64.384598" style="fill: #ff7f0e; stroke: #ffffff; stroke-width: 2"/>
    </g>
   </g>
   <g id="PathCollection_11">
    <g clip-path="url(#p6498d09406)">
     <use xlink:href="#m2f9727f1fb" x="255.99356" y="102.749821" style="fill: #ff7f0e; stroke: #ffffff; stroke-width: 2"/>
    </g>
   </g>
   <g id="PathCollection_12">
    <g clip-path="url(#p6498d09406)">
     <use xlink:href="#m2f9727f1fb" x="315.772155" y="141.115045" style="fill: #ff7f0e; stroke: #ffffff; stroke-width: 2"/>
    </g>
   </g>
   <g id="PathCollection_13">
    <g clip-path="url(#p6498d09406)">
     <use xlink:href="#m2f9727f1fb" x="310.941562" y="179.480269" style="fill: #ff7f0e; stroke: #ffffff; stroke-width: 2"/>
    </g>
   </g>
   <g id="PathCollection_14">
    <g clip-path="url(#p6498d09406)">
     <use xlink:href="#m2f9727f1fb" x="688.33168" y="217.845492" style="fill: #ff7f0e; stroke: #ffffff; stroke-width: 2"/>
    </g>
   </g>
   <g id="PathCollection_15">
    <g clip-path="url(#p6498d09406)">
     <use xlink:href="#m2f9727f1fb" x="352.605431" y="256.210716" style="fill: #ff7f0e; stroke: #ffffff; stroke-width: 2"/>
    </g>
   </g>
   <g id="PathCollection_16">
    <g clip-path="url(#p6498d09406)">
     <use xlink:href="#m2f9727f1fb" x="468.539675" y="294.575939" style="fill: #ff7f0e; stroke: #ffffff; stroke-width: 2"/>
    </g>
   </g>
   <g id="PathCollection_17">
    <defs>
     <path id="mbe48e0276d" d="M 0 6.837397 
C 1.813299 6.837397 3.552574 6.116966 4.83477 4.83477 
C 6.116966 3.552574 6.837397 1.813299 6.837397 0 
C 6.837397 -1.813299 6.116966 -3.552574 4.83477 -4.83477 
C 3.552574 -6.116966 1.813299 -6.837397 0 -6.837397 
C -1.813299 -6.837397 -3.552574 -6.116966 -4.83477 -4.83477 
C -6.116966 -3.552574 -6.837397 -1.813299 -6.837397 0 
C -6.837397 1.813299 -6.116966 3.552574 -4.83477 4.83477 
C -3.552574 6.116966 -1.813299 6.837397 0 6.837397 
z
" style="stroke: #ffffff; stroke-width: 2"/>
    </defs>
    <g clip-path="url(#p6498d09406)">
     <use xlink:href="#mbe48e0276d" x="190.780548" y="26.019374" style="fill: #1f77b4; stroke: #ffffff; stroke-width: 2"/>
    </g>
   </g>
   <g id="PathCollection_18">
    <g clip-path="url(#p6498d09406)">
     <use xlink:href="#mbe48e0276d" x="194.403493" y="64.384598" style="fill: #1f77b4; stroke: #ffffff; stroke-width: 2"/>
    </g>
   </g>
   <g id="PathCollection_19">
    <g clip-path="url(#p6498d09406)">
     <use xlink:href="#mbe48e0276d" x="196.81879" y="102.749821" style="fill: #1f77b4; stroke: #ffffff; stroke-width: 2"/>
    </g>
   </g>
   <g id="PathCollection_20">
    <g clip-path="url(#p6498d09406)">
     <use xlink:href="#mbe48e0276d" x="191.988196" y="141.115045" style="fill: #1f77b4; stroke: #ffffff; stroke-width: 2"/>
    </g>
   </g>
   <g id="PathCollection_21">
    <g clip-path="url(#p6498d09406)">
     <use xlink:href="#mbe48e0276d" x="207.687625" y="179.480269" style="fill: #1f77b4; stroke: #ffffff; stroke-width: 2"/>
    </g>
   </g>
   <g id="PathCollection_22">
    <g clip-path="url(#p6498d09406)">
     <use xlink:href="#mbe48e0276d" x="205.272329" y="217.845492" style="fill: #1f77b4; stroke: #ffffff; stroke-width: 2"/>
    </g>
   </g>
   <g id="PathCollection_23">
    <g clip-path="url(#p6498d09406)">
     <use xlink:href="#mbe48e0276d" x="344.151892" y="256.210716" style="fill: #1f77b4; stroke: #ffffff; stroke-width: 2"/>
    </g>
   </g>
   <g id="PathCollection_24">
    <g clip-path="url(#p6498d09406)">
     <use xlink:href="#mbe48e0276d" x="581.454799" y="294.575939" style="fill: #1f77b4; stroke: #ffffff; stroke-width: 2"/>
    </g>
   </g>
   <g id="PathCollection_25">
    <defs>
     <path id="mcce7e34bcb" d="M 0 6.837397 
C 1.813299 6.837397 3.552574 6.116966 4.83477 4.83477 
C 6.116966 3.552574 6.837397 1.813299 6.837397 0 
C 6.837397 -1.813299 6.116966 -3.552574 4.83477 -4.83477 
C 3.552574 -6.116966 1.813299 -6.837397 0 -6.837397 
C -1.813299 -6.837397 -3.552574 -6.116966 -4.83477 -4.83477 
C -6.116966 -3.552574 -6.837397 -1.813299 -6.837397 0 
C -6.837397 1.813299 -6.116966 3.552574 -4.83477 4.83477 
C -3.552574 6.116966 -1.813299 6.837397 0 6.837397 
z
" style="stroke: #ffffff; stroke-width: 2"/>
    </defs>
    <g clip-path="url(#p6498d09406)">
     <use xlink:href="#mcce7e34bcb" x="473.974093" y="20.264591" style="fill: #7f7f7f; stroke: #ffffff; stroke-width: 2"/>
    </g>
   </g>
   <g id="PathCollection_26">
    <defs>
     <path id="ma9fc735efd" d="M 0 6.837397 
C 1.813299 6.837397 3.552574 6.116966 4.83477 4.83477 
C 6.116966 3.552574 6.837397 1.813299 6.837397 0 
C 6.837397 -1.813299 6.116966 -3.552574 4.83477 -4.83477 
C 3.552574 -6.116966 1.813299 -6.837397 0 -6.837397 
C -1.813299 -6.837397 -3.552574 -6.116966 -4.83477 -4.83477 
C -6.116966 -3.552574 -6.837397 -1.813299 -6.837397 0 
C -6.837397 1.813299 -6.116966 3.552574 -4.83477 4.83477 
C -3.552574 6.116966 -1.813299 6.837397 0 6.837397 
z
" style="stroke: #ffffff; stroke-width: 2"/>
    </defs>
    <g clip-path="url(#p6498d09406)">
     <use xlink:href="#ma9fc735efd" x="473.974093" y="47.120247" style="fill: #ff7f0e; stroke: #ffffff; stroke-width: 2"/>
    </g>
   </g>
   <g id="PathCollection_27">
    <g clip-path="url(#p6498d09406)">
     <use xlink:href="#mbe48e0276d" x="473.974093" y="73.975904" style="fill: #1f77b4; stroke: #ffffff; stroke-width: 2"/>
    </g>
   </g>
  </g>
 </g>
 <defs>
  <clipPath id="p6498d09406">
   <rect x="178.10024" y="3.00024" width="555.518254" height="318.431356"/>
  </clipPath>
 </defs>
</svg>
